<?xml version="1.0" encoding="iso-8859-1"?>
<!-- Generator: Adobe Illustrator 18.0.0, SVG Export Plug-In . SVG Version: 6.00 Build 0)  -->
<!DOCTYPE svg PUBLIC "-//W3C//DTD SVG 1.0//EN" "http://www.w3.org/TR/2001/REC-SVG-20010904/DTD/svg10.dtd" [
	<!ENTITY ns_flows "http://ns.adobe.com/Flows/1.0/">
	<!ENTITY ns_extend "http://ns.adobe.com/Extensibility/1.0/">
	<!ENTITY ns_ai "http://ns.adobe.com/AdobeIllustrator/10.0/">
	<!ENTITY ns_graphs "http://ns.adobe.com/Graphs/1.0/">
	<!ENTITY ns_vars "http://ns.adobe.com/Variables/1.0/">
	<!ENTITY ns_imrep "http://ns.adobe.com/ImageReplacement/1.0/">
	<!ENTITY ns_sfw "http://ns.adobe.com/SaveForWeb/1.0/">
	<!ENTITY ns_custom "http://ns.adobe.com/GenericCustomNamespace/1.0/">
	<!ENTITY ns_adobe_xpath "http://ns.adobe.com/XPath/1.0/">
]>
<svg version="1.0" xmlns:x="&ns_extend;" xmlns:i="&ns_ai;" xmlns:graph="&ns_graphs;"
	 xmlns="http://www.w3.org/2000/svg" xmlns:xlink="http://www.w3.org/1999/xlink" xmlns:a="http://ns.adobe.com/AdobeSVGViewerExtensions/3.0/"
	 x="0px" y="0px" viewBox="0 0 100 100" enable-background="new 0 0 100 100" xml:space="preserve">
<metadata>
	<sfw  xmlns="&ns_sfw;">
		<slices></slices>
		<sliceSourceBounds  width="1185.4" height="305.2" x="-0.5" y="-304.7" bottomLeftOrigin="true"></sliceSourceBounds>
	</sfw>
</metadata>
<g id="Layer_1">
	<g>
		<path fill="none" stroke="#7A7A7A" stroke-width="3" stroke-linecap="round" stroke-linejoin="round" stroke-miterlimit="10" d="
			M68.9,70c-1-0.7-9.8-1.9-11.3-3.1c-1.5-1.1-3.6-3.9-4-6.2c4.9-2.2,8.3-10.3,8.3-17.1c0-8.8-5.7-13.6-12.8-13.6
			s-12.8,4.8-12.8,13.6c0,6.8,3.5,14.9,8.3,17.1c-0.4,2.3-2.5,5.1-4,6.2c-1.5,1.1-10.3,2.4-11.3,3.1"/>
		<path fill="none" stroke="#7A7A7A" stroke-width="2" stroke-linecap="round" stroke-linejoin="round" stroke-miterlimit="10" d="
			M78.7,64.5c-0.7-0.4-6.1-1.2-7.1-1.9c-0.9-0.7-2.2-2.4-2.5-3.9c3-1.4,5.2-6.4,5.2-10.7c0-5.5-3.6-8.5-8-8.5c-0.3,0-0.6,0-0.9,0"/>
		<path fill="none" stroke="#7A7A7A" stroke-width="2" stroke-linecap="round" stroke-linejoin="round" stroke-miterlimit="10" d="
			M32.9,39.5c-0.3,0-0.6,0-0.9,0c-4.4,0-8,3-8,8.5c0,4.3,2.2,9.3,5.2,10.7c-0.2,1.4-1.6,3.2-2.5,3.9c-0.9,0.7-6.4,1.5-7.1,1.9"/>
	</g>
</g>
<g id="Layer_2" display="none">
	
		<rect x="0" y="0" display="inline" fill="none" stroke="#DBDBDB" stroke-linecap="round" stroke-linejoin="round" stroke-miterlimit="10" width="100" height="100"/>
</g>
</svg>
